<?xml version="1.0" encoding="UTF-8"?>
<svg id="_레이어_1" data-name="레이어_1" xmlns="http://www.w3.org/2000/svg" version="1.1" viewBox="0 0 5442.52 5442.52">
  <!-- Generator: Adobe Illustrator 29.0.1, SVG Export Plug-In . SVG Version: 2.1.0 Build 192)  -->
  <defs>
    <style>
      .st0 {
        fill: #070001;
      }
    </style>
  </defs>
  <path class="st0" d="M1686.55,2434.71c-31.08,0-56.15-33.89-56.15-64.96v-33.58c0-56.11-44.64-102.89-100.75-103.62-57.01-.74-103.46,45.25-103.46,102.09v50.04c0,26.9-20.41,49.97-47.23,51.92-29.91,2.17-54.86-21.45-54.87-50.9v-101.06c0-27.82-21.81-51.33-49.62-52.09-28.85-.79-52.49,22.36-52.49,51.03v853.27c0,28.2-22.86,51.05-51.05,51.05s-51.05-22.86-51.05-51.05v-501.84c0-220.65-177.56-399.83-397.59-402.45-110-1.31-201.89,85.94-203.14,195.94-1.25,110.56,88,200.57,198.27,200.57,109.5,0,198.25,88.77,198.25,198.27v132.22c0,141.08,113.28,257.54,254.35,258.03,141.39.49,256.16-113.98,256.16-255.25v-321.39c0-2.15.09-4.27.22-6.39h-.22v-148.17c0-55.73,44-102.39,99.71-103.66,44.07-1.01,81.99,25.92,97.28,64.31,9.03,22.67,30.69,37.75,55.09,37.75h66.65s0,.01,0,.01c8.85,0,16.94,5.56,19.57,14,4.41,14.18-6.06,27.19-19.57,27.19,0,0-80.6.04-80.6.04-110.29,0-204.14,90.08-204.14,204.19,0,4.81.18,9.62.51,14.42,3.1,114.11,102.36,205.77,216.97,206.82,2.12.06,2.15.1,4.29.1,348.23,0,306.43-516.85,4.59-516.85Z"/>
  <path class="st0" d="M4704.9,3121.97c0,27.79-22.53,50.32-50.32,50.32h0c-27.79,0-50.32-22.53-50.32-50.32v-339.11h310.2v-160.03h-310.2v-281.28h-100.75c-65.01,0-117.72,52.7-117.72,117.72v491.35c0,147.45,119.53,266.98,266.98,266.98h1.81c148.44,0,268.77-120.33,268.77-268.77v-108.27h-218.47v281.42Z"/>
  <path class="st0" d="M2413.59,3103.75c0,37.96-30.77,68.73-68.73,68.73s-68.73-30.77-68.73-68.73v-764.81c0-37.96,30.77-68.73,68.73-68.73h0c37.96,0,68.73,30.77,68.73,68.73v226.21h228.87v-43.03c0-164.09-133.03-297.12-297.12-297.12h0c-164.09,0-297.12,133.03-297.12,297.12v398.37c0,164.16,133.12,297.21,297.28,297.12,164.03-.09,296.96-133.09,296.96-297.12v-79.92h-228.87v263.2Z"/>
  <path class="st0" d="M4674.15,2224.94l-282.75.04c-137.61.02-249.14,111.58-249.14,249.18v676.75c0,5.33-4.32,9.66-9.66,9.66-4.85,0-8.95-3.59-9.58-8.4l-92.82-711.09c-16.56-123.72-122.1-216.1-246.93-216.13l-135.72-.03v905.88c0,14.57-10.22,27.96-24.68,29.81-15.36,1.96-29.13-8.54-31.66-23.38l-156.93-912.31h-252.29l-136.91,908.54c-2.54,14.91-16.41,25.44-31.88,23.35-14.3-1.93-24.45-15.06-24.45-29.48v-265.43c0-140.02-64.51-181.21-174.32-183.95v-2.74c123.54-20.58,174.32-100.22,174.32-222.4,0-149.95-94-227.83-260.75-227.83l-97.63-.04v4.41c77.05,11.27,129.85,52.13,130.51,161.34v147.47c0,46.76-37.9,84.66-84.66,84.66h-262.65v160.06l264.94.02c41.17,0,82.37,34.32,82.37,102.96v157.58c0,87.77,71.15,158.93,158.93,158.93h287.9l29.73-240.23h152.21l29.73,240.23h402.13v-849.06c0-5.17,4.19-9.36,9.36-9.36,4.63,0,8.57,3.39,9.25,7.98l126.68,850.44,202.22-.12c88.02.07,159.41-71.28,159.41-159.31v-579.14c0-102.06,79.35-188.99,181.35-192.63,107.09-3.82,195.11,81.86,195.11,188.1v105.88h218.47v-91.02c0-137.63-111.59-249.2-249.22-249.18ZM3255.81,2813.85l53.86-435.19h7.8l53.86,435.19h-115.51Z"/>
</svg>