<?xml version="1.0" encoding="UTF-8"?>
<svg id="_레이어_1" data-name="레이어_1" xmlns="http://www.w3.org/2000/svg" version="1.1" viewBox="0 0 5442.52 5442.52">
  <!-- Generator: Adobe Illustrator 29.0.1, SVG Export Plug-In . SVG Version: 2.1.0 Build 192)  -->
  <defs>
    <style>
      .st0 {
        fill: #070001;
      }
    </style>
  </defs>
  <path class="st0" d="M4037.59,1892.38c-88.75,0-160.33-96.77-160.33-185.51v-95.89c0-160.24-127.47-293.8-287.7-295.89-162.8-2.11-295.44,129.23-295.44,291.54v142.9c0,76.81-58.28,142.7-134.88,148.27-85.42,6.21-156.66-61.25-156.68-145.34v-288.58c0-79.44-62.28-146.58-141.69-148.76-82.38-2.26-149.88,63.85-149.88,145.73v2436.61c0,80.52-65.27,145.78-145.78,145.78s-145.78-65.27-145.78-145.78v-1433.08c0-630.1-507.05-1141.77-1135.37-1149.23-314.13-3.73-576.53,245.41-580.08,559.54-3.57,315.71,251.29,572.77,566.18,572.74,312.68-.03,566.14,253.5,566.14,566.18v377.57c0,402.86,323.48,735.43,726.34,736.83,403.75,1.39,731.49-325.48,731.49-728.91v-917.77c0-6.13.25-12.21.63-18.24h-.63v-423.12c0-159.14,125.66-292.38,284.74-296.01,125.86-2.87,234.13,74.03,277.8,183.65,25.78,64.73,87.64,107.81,157.31,107.81l190.32.03h0c25.26,0,48.37,15.86,55.88,39.97,12.6,40.48-17.3,77.63-55.88,77.63,0,0-230.16.1-230.16.1-314.96,0-582.94,257.24-582.94,583.1,0,13.73.51,27.47,1.46,41.19,8.86,325.86,292.3,587.61,619.59,590.59,6.05.18,6.13.28,12.25.28,994.41,0,875.06-1475.93,13.09-1475.93Z"/>
</svg>