<svg id="그룹_2" data-name="그룹 2" xmlns="http://www.w3.org/2000/svg" xmlns:xlink="http://www.w3.org/1999/xlink" width="119.622" height="73.713" viewBox="0 0 119.622 73.713">
  <defs>
    <clipPath id="clip-path">
      <rect id="사각형_1" data-name="사각형 1" width="119.622" height="73.713" fill="none"/>
    </clipPath>
  </defs>
  <g id="그룹_1" data-name="그룹 1" clip-path="url(#clip-path)">
    <path id="패스_1" data-name="패스 1" d="M341.616,100.327a2.463,2.463,0,0,1-2.627,2.458,2.52,2.52,0,0,1-2.3-2.543V84.65H347.9V78.677H336.688V43.994h-3.45a4.9,4.9,0,0,0-4.9,4.9v44.6a11.182,11.182,0,1,0,22.365,0V86.112h-9.089Z" transform="translate(-231.083 -30.963)"/>
    <path id="패스_2" data-name="패스 2" d="M155.741,10.369h0A10.367,10.367,0,0,0,145.372,0L133.608,0A10.367,10.367,0,0,0,123.242,10.37V38.526a.4.4,0,0,1-.8.052L118.58,8.993A10.367,10.367,0,0,0,108.307,0H102.66V37.689a1.229,1.229,0,0,1-1.027,1.24,1.181,1.181,0,0,1-1.317-.972L94.083,0H83.29l-5.7,37.8a1.181,1.181,0,0,1-1.327.971,1.22,1.22,0,0,1-1.017-1.227V26.5c0-5.826-2.684-7.539-7.253-7.653v-.114c5.14-.856,7.253-4.169,7.253-9.253C75.25,3.242,71.34,0,64.4,0L60.34,0V.183c3.206.469,5.4,2.169,5.43,6.712v6.136a3.522,3.522,0,0,1-3.522,3.523H51.32V50.243H60.8V22.1h1.543c1.713,0,3.427,1.428,3.427,4.283V40.667H84.361L85.6,30.672H91.93l1.237,9.995H109.9V5.341a.389.389,0,0,1,.774-.057l5.271,35.383,8.413,0a6.628,6.628,0,0,0,6.632-6.628V9.913A7.938,7.938,0,0,1,138.6,1.922a7.832,7.832,0,0,1,8.052,7.828V45.5h9.089ZM88.659,24.5h-2.3L88.6,6.4h.324L91.167,24.5Z" transform="translate(-36.119)"/>
    <path id="패스_3" data-name="패스 3" d="M15.2,4.751v8.288h9.522v-.667A12.362,12.362,0,0,0,0,12.372V61.351a12.362,12.362,0,1,0,24.724,0V53.622H15.2V68.976a2.86,2.86,0,1,1-5.719,0V4.751a2.86,2.86,0,1,1,5.719,0" transform="translate(0 -0.007)"/>
  </g>
</svg>
